<?xml version="1.0" encoding="UTF-8"?>
<svg xmlns="http://www.w3.org/2000/svg" viewBox="0 0 64 64" width="64" height="64">
  <rect width="64" height="64" rx="12" fill="#0B0B0F" />
  <g
    fill="none"
    stroke="#F5F5F7"
    stroke-width="2.5"
    stroke-linecap="round"
    stroke-linejoin="round"
    transform="translate(0,0)"
  >
    <path d="M4 26 h10 v12 h-10 a2 2 0 0 1 -2 -2 v-8 a2 2 0 0 1 2 -2 z" />
    <path d="M14 18 a18 18 0 1 0 0 28 z" />
    <path d="M22 22 a10 10 0 1 0 0 20" stroke-width="1.8" opacity="0.55" />
    <circle cx="34" cy="32" r="4" fill="#F5F5F7" stroke="none" />
    <circle cx="34" cy="32" r="11" />
    <path d="M34 22 q 3 4 0 10" stroke-width="1.8" />
    <path d="M41 24.5 q -1 5 -7 7.5" stroke-width="1.8" />
    <path d="M44 32 q -5 -1 -10 0" stroke-width="1.8" />
    <path d="M41 39.5 q -1 -5 -7 -7.5" stroke-width="1.8" />
    <path d="M34 42 q 3 -4 0 -10" stroke-width="1.8" />
    <path d="M27 39.5 q 1 -5 7 -7.5" stroke-width="1.8" />
    <path d="M24 32 q 5 1 10 0" stroke-width="1.8" />
    <path d="M27 24.5 q 1 5 7 7.5" stroke-width="1.8" />
    <path d="M44 14 h12 a2 2 0 0 1 2 2 v6 a2 2 0 0 1 -2 2 h-10 z" />
    <path d="M58 10 q 3 -2 3 -5" opacity="0.65" />
    <path d="M52 7 q 1 -3 4 -4" opacity="0.65" />
  </g>
</svg>
