<?xml version="1.0" encoding="UTF-8"?>
<svg xmlns="http://www.w3.org/2000/svg" viewBox="0 0 64 64" width="64" height="64">
  <rect width="64" height="64" rx="12" fill="#0B0B0F" />
  <g fill="#F5F5F7">
    <path d="M20.223,24.223C18.145,26.302,17,29.063,17,32s1.145,5.698,3.223,7.777C22.302,41.855,25.063,43,28,43   s5.698-1.145,7.777-3.223C37.855,37.698,39,34.937,39,32s-1.145-5.698-3.223-7.777C33.698,22.145,30.937,21,28,21   S22.302,22.145,20.223,24.223z M36.941,33c-0.187,1.694-0.845,3.283-1.912,4.614L30.7,33.286c0.045-0.093,0.083-0.188,0.118-0.286   H36.941z M19.059,31c0.187-1.694,0.845-3.283,1.912-4.614l4.328,4.328c-0.045,0.093-0.083,0.188-0.118,0.286H19.059z    M27.287,32.694C27.103,32.513,27,32.267,27,32s0.103-0.513,0.306-0.712C27.487,31.102,27.733,31,28,31s0.513,0.102,0.713,0.306   C28.897,31.487,29,31.733,29,32s-0.103,0.513-0.307,0.712C28.334,33.084,27.686,33.102,27.287,32.694z M27,29.204   c-0.094,0.031-0.185,0.067-0.275,0.107l-4.339-4.339c1.331-1.068,2.92-1.726,4.614-1.913V29.204z M26.714,34.7   c0.093,0.045,0.188,0.083,0.286,0.118v6.123c-1.694-0.187-3.283-0.845-4.614-1.912L26.714,34.7z M29,34.819   c0.098-0.035,0.194-0.073,0.287-0.118l4.327,4.327c-1.331,1.067-2.92,1.726-4.614,1.912V34.819z M29.273,29.313   c-0.09-0.04-0.18-0.076-0.273-0.107v-6.147c1.694,0.187,3.283,0.845,4.614,1.913L29.273,29.313z M19.059,33h6.121   c0.035,0.098,0.073,0.194,0.118,0.287l-4.327,4.327C19.904,36.283,19.246,34.694,19.059,33z M36.941,31h-6.122   c-0.035-0.098-0.073-0.193-0.118-0.287l4.327-4.327C36.096,27.717,36.754,29.306,36.941,31z" />
    <path d="M61,1h-2c-1.103,0-2,0.897-2,2v0.098l-8.147,0.836C47.813,4.013,47,4.891,47,5.93V6H27.84   c-4.457,0-8.863,1.109-12.811,3.191l-2.787-1.865c-1.199-0.794-2.755-0.642-3.789,0.377l-4.755,4.755   c-0.998,1.013-1.154,2.604-0.369,3.788l1.56,2.331c-1.801,2.865-3.001,6.007-3.556,9.362C1.112,29.298,1,30.665,1,32   c0,4.832,1.296,9.538,3.727,13.665l-1.401,2.093c-0.794,1.199-0.642,2.756,0.377,3.789l4.755,4.755   c0.588,0.58,1.349,0.878,2.117,0.878c0.575,0,1.155-0.167,1.67-0.508l2.098-1.399c2.158,1.273,4.46,2.225,6.86,2.838l0.497,2.477   C21.982,61.985,23.219,63,24.64,63h6.721c1.421,0,2.657-1.015,2.94-2.413l0.497-2.479c2.397-0.625,4.688-1.585,6.829-2.86   l2.131,1.427c0.513,0.339,1.09,0.506,1.664,0.506c0.77,0,1.533-0.3,2.125-0.883l4.755-4.755c1.014-1.028,1.166-2.585,0.37-3.788   l-1.426-2.129c2.319-3.916,3.619-8.339,3.744-12.845c0.104-3.545-0.475-6.992-1.711-10.258L57,22.903V23c0,1.103,0.897,2,2,2h2   c1.103,0,2-0.897,2-2V3C63,1.897,62.103,1,61,1z M5.117,13.867l4.745-4.745c0.348-0.343,0.872-0.396,1.272-0.131l1.963,1.314   c-2.716,1.739-5.1,3.949-6.996,6.489l-1.108-1.657C4.727,14.734,4.779,14.21,5.117,13.867z M11.139,55.006   c-0.404,0.267-0.929,0.214-1.271-0.123l-4.745-4.745c-0.343-0.348-0.396-0.872-0.13-1.273l0.904-1.356   c1.794,2.556,4.039,4.8,6.593,6.594L11.139,55.006z M31.36,61H24.64c-0.473,0-0.885-0.34-0.979-0.808l-0.321-1.599   C24.876,58.864,26.44,59,28.016,59c0.561,0,1.122-0.018,1.685-0.052c0.987-0.06,1.977-0.2,2.964-0.375l-0.324,1.618   C32.245,60.66,31.833,61,31.36,61z M50.883,50.133l-4.745,4.745c-0.348,0.343-0.873,0.396-1.271,0.131l-1.397-0.934   c2.55-1.8,4.797-4.05,6.602-6.61l0.934,1.397C51.273,49.266,51.221,49.79,50.883,50.133z M52.99,32.722   c-0.12,4.369-1.423,8.659-3.769,12.409c-2.038,3.268-4.832,6.065-8.085,8.093c-2.302,1.45-4.8,2.497-7.427,3.113   c-1.367,0.324-2.757,0.531-4.131,0.615c-2.468,0.152-4.924-0.056-7.296-0.617c-2.63-0.603-5.138-1.641-7.457-3.086   c-3.265-2.019-6.057-4.812-8.077-8.077C4.297,41.23,3,36.676,3,32c0-1.228,0.104-2.486,0.307-3.737   c0.545-3.294,1.758-6.372,3.608-9.152c2.093-3.172,4.983-5.867,8.358-7.791C19.104,9.148,23.449,8,27.84,8H43v4h2V8h2v10h-2v-4h-2   v4h-9.643c-1.694-0.658-3.494-1-5.357-1c-8.271,0-15,6.729-15,15c0,8.271,6.729,15,15,15s15-6.729,15-15   c0-4.832-2.274-9.221-6.003-12H47v0.07c0,1.04,0.813,1.917,1.826,1.995l2.199,0.225C52.431,25.599,53.097,29.104,52.99,32.722z    M41,32c0,7.168-5.832,13-13,13s-13-5.832-13-13c0-7.168,5.832-13,13-13c1.681,0,3.3,0.312,4.82,0.929   C37.789,21.909,41,26.647,41,32z M49,20.07V7l0.031-1.075L57,5.108v15.785L49,20.07z M61,23h-2V3h2V23z" />
    <path d="M45,32c0,1.654,1.346,3,3,3s3-1.346,3-3s-1.346-3-3-3S45,30.346,45,32z M49,32c0,0.551-0.448,1-1,1s-1-0.449-1-1   s0.448-1,1-1S49,31.449,49,32z" />
    <path d="M10.392,20.555l-1.664-1.109c-0.379,0.568-0.75,1.197-1.104,1.87l1.771,0.93C9.716,21.634,10.051,21.065,10.392,20.555z" />
    <path d="M7,32c0-2.844,0.559-5.602,1.661-8.199L6.819,23.02C5.612,25.865,5,28.886,5,32c0,12.683,10.317,23,23,23v-2   C16.421,53,7,43.579,7,32z" />
  </g>
</svg>
